<?xml version="1.0" encoding="UTF-8"?>
<svg id="katman_1" xmlns="http://www.w3.org/2000/svg" version="1.1" viewBox="0 0 2000 2000">
  <!-- Generator: Adobe Illustrator 29.8.3, SVG Export Plug-In . SVG Version: 2.1.1 Build 3)  -->
  <defs>
    <style>
      .st0 {
        fill: #fff;
      }

      .st1 {
        fill-rule: evenodd;
      }

      .st1, .st2 {
        fill: #041617;
      }

      .st3 {
        display: none;
      }
    </style>
  </defs>
  <g class="st3">
    <path class="st0" d="M1000,5c67.51,0,134.98,6.8,200.53,20.22,63.88,13.07,126.72,32.58,186.77,57.98,58.96,24.94,115.82,55.8,169.01,91.74,52.69,35.6,102.23,76.47,147.26,121.5,45.03,45.03,85.91,94.57,121.5,147.26,35.94,53.19,66.8,110.06,91.74,169.01,25.4,60.05,44.9,122.88,57.97,186.77,13.41,65.55,20.21,133.02,20.21,200.53s-6.8,134.98-20.21,200.53c-13.07,63.88-32.58,126.72-57.97,186.77-24.94,58.96-55.8,115.82-91.74,169.01-35.6,52.69-76.47,102.23-121.5,147.26-45.03,45.03-94.57,85.91-147.26,121.5-53.19,35.94-110.06,66.8-169.01,91.74-60.05,25.4-122.88,44.9-186.77,57.97-65.55,13.41-133.02,20.21-200.53,20.21s-134.98-6.8-200.53-20.21c-63.88-13.07-126.72-32.58-186.77-57.97-58.96-24.94-115.82-55.8-169.01-91.74-52.69-35.6-102.23-76.47-147.26-121.5-45.03-45.03-85.91-94.57-121.5-147.26-35.94-53.19-66.8-110.06-91.74-169.01-25.4-60.05-44.9-122.88-57.98-186.77-13.41-65.55-20.22-133.02-20.22-200.53s6.8-134.98,20.22-200.53c13.07-63.88,32.58-126.72,57.98-186.77,24.94-58.96,55.8-115.82,91.74-169.01,35.6-52.69,76.47-102.23,121.5-147.26,45.03-45.03,94.57-85.91,147.26-121.5,53.19-35.94,110.06-66.8,169.01-91.74,60.05-25.4,122.88-44.9,186.77-57.98,65.55-13.41,133.02-20.22,200.53-20.22M1000,0C447.72,0,0,447.72,0,1000s447.72,1000,1000,1000,1000-447.72,1000-1000S1552.28,0,1000,0h0Z"/>
  </g>
  <g id="Logo">
    <path class="st1" d="M1494.76,1504.99l31.21-176.58h-20.94c2.29,3.23,4.54,6.47,6.76,9.75-2.24,3.38-4.51,6.73-6.81,10.06-.95,28.22-6.21,55.05-15.67,79.91-10.52,27.66-25.97,52.12-45.87,72.7-20.08,20.77-44.05,36.9-71.25,47.94-27.4,11.14-57.35,16.78-88.99,16.78-24.26,0-47.12-4.04-67.96-12.02-21.14-8.09-39.72-20.03-55.25-35.49-13.12-13.05-23.71-28.29-31.57-45.36-1.84,2.47-3.73,4.89-5.67,7.28,29.18,33.88,61.38,65.07,96.2,93.15-68,26-141.81,40.24-218.96,40.24s-146.19-13.33-212.35-37.77c7.27-5.95,14.44-12.05,21.47-18.27-5.87-2.97-11.15-7.12-15.48-12.3-6.81-8.14-10.74-18.11-11.37-28.47-3.11,2.83-6.34,5.53-9.66,8.14-34.15,26.73-77.49,40.86-125.33,40.86-24.12,0-46.35-3.87-66.05-11.52-21.89-8.49-40.16-21.37-54.31-38.27-.7-.84-1.4-1.71-2.11-2.59.08,9.79-2.79,19.51-8.44,27.86-1.96,2.9-4.2,5.54-6.68,7.92,130.16,116.36,301.98,187.1,490.31,187.1s369.78-74.76,501.18-197.01c-6.18-10.11-8.5-22.17-6.41-34.04ZM999.99,263.97c-406.49,0-736.03,329.54-736.03,736.03,0,60.94,7.4,120.16,21.37,176.79,3.71-.91,7.56-1.37,11.52-1.37h115.24c-16.56-55.57-25.46-114.46-25.46-175.42,0-75.5,13.65-147.8,38.6-214.6,77.07,95.47,177.52,171.29,292.65,218.75-95.87,40.51-181.35,100.75-251.38,175.63,29.84,6.57,50.05,19.63,63.47,32.65,5.45-21.64,24.9-37.02,47.53-37.02h71.38c2.98,0,5.93.27,8.82.8,79.69-54.65,172.93-90.97,273.66-102.89-3.84,35-10.61,69.11-20.08,102.09h85.3c29.32,0,56.16,4.84,79.79,14.39,8.95,3.61,17.35,7.86,25.21,12.73-14.49-41.42-24.66-84.87-29.97-129.81,99.47,10.88,191.78,45.56,271.12,98.2,20.97.91,40.74,4.78,58.9,11.55,21.36,7.96,40.11,19.77,55.74,35.11,2.63,2.58,5.15,5.25,7.57,8l1.76-9.8c4.2-23.39,24.5-40.37,48.27-40.37h22.68c-70.7-74.39-156.78-134-253.16-173.74,113.85-48.12,213.06-124.08,289.12-219.33,25.67,67.64,39.73,141,39.73,217.66,0,60.95-8.89,119.84-25.46,175.42h127.11c13.74-56.22,21.03-114.96,21.03-175.42,0-406.49-329.54-736.03-736.03-736.03ZM487.41,663.01c44.51-67.56,102.03-125.8,168.98-171.16,148.55,96.93,252.53,256.49,274.36,441.24-184.95-20.24-345.17-122.72-443.34-270.08ZM777.73,428.16c68.92-26.81,143.87-41.51,222.26-41.51s150.91,14.23,218.9,40.22c-95.55,77.09-171.44,177.57-218.93,292.74-48.6-115.01-125.61-215.08-222.23-291.45ZM1071,932.49c20.21-184.65,122.37-344.63,269.34-442.83,67.45,45.07,125.46,103.16,170.45,170.67-97.07,147.38-255.96,250.42-439.79,272.16Z"/>
    <g>
      <path class="st2" d="M57.57,1218.64h192.1c3.61,0,6.34,3.25,5.73,6.81l-9.5,54.91c-.48,2.79-2.9,4.82-5.73,4.82h-110.51c-2.82,0-5.23,2.02-5.73,4.8l-7.32,41.26c-.63,3.56,2.11,6.83,5.73,6.83h74.44c3.61,0,6.35,3.26,5.73,6.81l-9.06,51.92c-.49,2.78-2.9,4.82-5.73,4.82h-78.53c-2.82,0-5.23,2.02-5.73,4.8l-19.2,108.12c-.49,2.78-2.91,4.8-5.73,4.8H6.32c-3.62,0-6.36-3.27-5.73-6.83l51.25-289.07c.49-2.78,2.91-4.8,5.73-4.8Z"/>
      <path class="st2" d="M423.77,1218.64c74.64,0,104.92,42.65,95.11,96.39-6.54,37.59-31.86,70.48-75.6,85.18-3.16,1.06-4.77,4.57-3.54,7.66l41.4,103.49c1.53,3.82-1.29,7.97-5.4,7.97h-80.31c-2.45,0-4.64-1.53-5.47-3.84l-37.32-103.22c-.83-2.3-3.02-3.84-5.47-3.84h0c-2.82,0-5.23,2.02-5.73,4.8l-17.92,101.29c-.49,2.78-2.91,4.8-5.73,4.8h-72.21c-3.62,0-6.36-3.27-5.73-6.83l51.25-289.07c.49-2.78,2.91-4.8,5.73-4.8h126.92ZM404.57,1288.16h-36.46c-2.84,0-5.26,2.05-5.73,4.85l-8.7,51.5c-.6,3.55,2.14,6.78,5.73,6.78h34.49c22.61,0,35.4-10.66,39.24-31.56,3.41-18.77-5.54-31.56-28.58-31.56Z"/>
      <path class="st2" d="M577.5,1218.64h71.38c3.61,0,6.35,3.25,5.73,6.81l-29.1,167.64c-5.54,30.71,4.69,50.33,36.25,50.33s49.9-19.62,55.45-50.33l29.86-169.64c.49-2.78,2.9-4.81,5.73-4.81h71.79c3.61,0,6.35,3.26,5.73,6.82l-29.51,167.63c-15.35,87.86-79.76,129.24-153.55,129.24s-120.71-43.51-105.35-129.24l29.86-169.64c.49-2.78,2.9-4.81,5.73-4.81Z"/>
      <path class="st2" d="M1127.1,1368.78c-15.35,87.01-87.44,150.56-183.83,150.56h-112.06c-3.62,0-6.36-3.27-5.73-6.83l51.25-289.07c.49-2.78,2.91-4.8,5.73-4.8h114.13c95.97,0,146.3,61.85,130.52,150.14ZM950.09,1445.98c48.2,0,83.17-27.72,92.13-77.2,8.53-49.9-16.63-77.63-64.83-77.63h-23.71c-2.82,0-5.23,2.02-5.72,4.79l-25.64,143.2c-.64,3.56,2.1,6.84,5.72,6.84h22.06Z"/>
      <path class="st2" d="M1283.2,1522.32c-77.2,0-127.53-51.18-127.53-125.82,0-107.91,72.51-182.55,177.43-182.55,78.91,0,128.81,50.33,128.81,124.97,0,107.06-72.51,183.41-178.71,183.41ZM1295.99,1444.7c52.04,0,83.17-45.21,83.17-95.97,0-35.83-20.05-57.58-56.73-57.58-52.04,0-84.03,44.36-84.03,95.54,0,35.4,20.05,58.01,57.58,58.01Z"/>
      <path class="st2" d="M1514.97,1218.64h231.3c3.62,0,6.36,3.28,5.72,6.84l-9.86,54.91c-.5,2.77-2.91,4.79-5.72,4.79h-70.02c-2.82,0-5.24,2.02-5.73,4.8l-39.68,224.56c-.49,2.78-2.9,4.8-5.73,4.8h-72.22c-3.62,0-6.36-3.27-5.73-6.83l38.96-220.51c.63-3.56-2.11-6.83-5.73-6.83h-65.45c-3.62,0-6.36-3.28-5.72-6.84l9.86-54.91c.5-2.77,2.91-4.79,5.72-4.79Z"/>
      <path class="st2" d="M1988.36,1283.45l-145.17,158.33c-3.42,3.73-.77,9.74,4.29,9.74h104.87c3.6,0,6.34,3.24,5.73,6.79l-9.54,56.19c-.47,2.8-2.9,4.84-5.73,4.84h-206.98c-3.61,0-6.35-3.26-5.73-6.81l9.61-55.08c.19-1.08.68-2.09,1.42-2.9l143.63-158.8c3.38-3.74.73-9.72-4.31-9.72h-103.66c-3.62,0-6.36-3.27-5.73-6.83l9.88-55.76c.49-2.78,2.91-4.8,5.73-4.8h207.01c3.61,0,6.35,3.26,5.73,6.81l-9.61,55.06c-.19,1.09-.69,2.11-1.44,2.93Z"/>
    </g>
  </g>
</svg>